<?xml version="1.0" encoding="utf-8"?>
<!-- Generator: Adobe Illustrator 22.0.0, SVG Export Plug-In . SVG Version: 6.00 Build 0)  -->
<svg version="1.1" id="Layer_1" xmlns="http://www.w3.org/2000/svg" xmlns:xlink="http://www.w3.org/1999/xlink" x="0px" y="0px"
	 viewBox="0 0 124.1 121.9" style="enable-background:new 0 0 124.1 121.9;" xml:space="preserve">
<g>
	<path d="M99.8,24.6L77.1,47.3l-1.4-1.4l23-23L54.9,39.4v28.9h28.4L99.8,24.6z M67.2,55.8c-1.6-1.6-1.6-4.1,0-5.7
		c1.6-1.6,4.1-1.6,5.7,0c1.6,1.6,1.6,4.1,0,5.7C71.3,57.4,68.7,57.4,67.2,55.8z"/>
	<path d="M101.3,100.2c17.9-17.9,21-45,9.3-66.2c5.5,13.9,2.7,30.3-8.6,41.6c-15.1,15.1-39.5,15.1-54.6,0
		c-15.1-15.1-15.1-39.5,0-54.6C58.6,9.7,75.1,6.9,89,12.4C67.8,0.7,40.7,3.8,22.8,21.7c-21.7,21.7-21.7,56.8,0,78.5
		S79.6,121.9,101.3,100.2z"/>
</g>
</svg>
