<?xml version="1.0" encoding="utf-8"?>
<!-- Generator: Adobe Illustrator 22.0.0, SVG Export Plug-In . SVG Version: 6.00 Build 0)  -->
<svg version="1.1" id="Layer_1" xmlns="http://www.w3.org/2000/svg" xmlns:xlink="http://www.w3.org/1999/xlink" x="0px" y="0px"
	 viewBox="0 0 235.3 153" style="enable-background:new 0 0 235.3 153; fill: #FFD46A;" xml:space="preserve">
<g>
	<polygon points="0,0 0,21.6 21.6,0 	"/>
	<polygon points="43.1,0 0,43.1 0,64.7 64.7,0 	"/>
	<polygon points="86.3,0 0,86.3 0,107.9 107.9,0 	"/>
	<polygon points="129.4,0 0,129.4 0,151 151,0 	"/>
	<polygon points="172.6,0 19.6,153 41.2,153 194.2,0 	"/>
	<polygon points="235.3,0 215.7,0 62.7,153 84.3,153 235.3,2 	"/>
	<polygon points="235.3,23.5 105.9,153 127.5,153 235.3,45.1 	"/>
	<polygon points="235.3,66.7 149,153 170.6,153 235.3,88.3 	"/>
	<polygon points="235.3,109.8 192.2,153 213.8,153 235.3,131.4 	"/>
</g>
</svg>
