<?xml version="1.0" encoding="utf-8"?>
<!-- Generator: Adobe Illustrator 22.0.0, SVG Export Plug-In . SVG Version: 6.00 Build 0)  -->
<svg version="1.1" id="Layer_1" xmlns="http://www.w3.org/2000/svg" xmlns:xlink="http://www.w3.org/1999/xlink" x="0px" y="0px"
	 viewBox="0 0 41.3 63.9" style="enable-background:new 0 0 41.3 63.9; fill: #FFFFFF;" xml:space="preserve">
<g>
	<g>
		<path d="M8.5,24.4l3.7-10.2h-4l0.1-1.7h4.5l0.6-1.7h6l-0.6,1.7h6.4h5.9h2.8l-0.1,1.7h-3.3l-3.1,9.6l5,0.7l-0.1,1.7l-5.4-0.7
			L26.1,28h-5.9l1.1-3.3l-6.5-0.9l-0.2,0.6C14.6,24.4,8.5,24.4,8.5,24.4z M15.3,22.2l6.5,0.9l2.9-8.8h-6.5L15.3,22.2z"/>
		<path d="M10.2,54.2l0.4-4.3H7.4l5.4-9H8.2l0.1-1.7h3.2l0.2-2.2h5l-0.2,2.3h2.3l-2.7,4.4l-0.2,1.7l2.1,0.7l-0.1,1.7l-2.1-0.7
			l-0.7,7.1H10.2z M18.2,52.2l1.2-12.9h1.2h2.9h0.9l0.2-2.2h4.6l-0.3,2.2h1H33h1l-1.1,12.9h-0.8h-3.3h-1l-0.2,2.1H23l0.2-2.1h-0.9
			h-2.7H18.2z M22.5,50.5h0.9l0.4-4.5h-0.9L22.5,50.5z M23,44.3h0.9l0.3-3.3h-0.9L23,44.3z M29.3,46h-1l-0.4,4.5h0.9L29.3,46z
			 M29.7,41h-1l-0.2,3.3h0.9L29.7,41z"/>
	</g>
	<g>
		<path d="M40.1,62.5H1.3v-61h38.8V62.5z M2.6,61.2h36.2V2.8H2.6V61.2z"/>
	</g>
</g>
</svg>
